<?xml version="1.0" standalone="no"?><!DOCTYPE svg PUBLIC "-//W3C//DTD SVG 1.1//EN" "http://www.w3.org/Graphics/SVG/1.1/DTD/svg11.dtd"><svg class="icon" width="200px" height="200.00px" viewBox="0 0 1024 1024" version="1.1" xmlns="http://www.w3.org/2000/svg"><path fill="#d81e06" d="M512 1024C229.052632 1024 0 794.947368 0 512S229.052632 0 512 0s512 229.052632 512 512-229.052632 512-512 512z m-13.473684-573.978947v-86.231579c0-5.389474-2.694737-13.473684-8.084211-18.863158-10.778947-10.778947-26.947368-10.778947-37.726316-2.694737l-161.68421 145.515789-2.694737 2.694737c-10.778947 10.778947-8.084211 26.947368 2.694737 37.726316l161.68421 145.51579c5.389474 5.389474 10.778947 8.084211 18.863158 8.08421 16.168421 0 26.947368-10.778947 26.947369-26.947368v-86.231579l115.873684 105.094737c5.389474 5.389474 10.778947 8.084211 18.863158 8.08421 16.168421 0 26.947368-10.778947 26.947368-26.947368V366.484211c0-5.389474-2.694737-13.473684-8.08421-18.863158-10.778947-10.778947-26.947368-10.778947-37.726316-2.694737l-115.873684 105.094737z"  /></svg>