<?xml version="1.0" standalone="no"?><!DOCTYPE svg PUBLIC "-//W3C//DTD SVG 1.1//EN" "http://www.w3.org/Graphics/SVG/1.1/DTD/svg11.dtd"><svg class="icon" width="200px" height="200.00px" viewBox="0 0 1024 1024" version="1.1" xmlns="http://www.w3.org/2000/svg"><path fill="#515151" d="M140.8 219.2h552.8c12.8 0 24-10.4 24-24s-10.4-24-24-24H140.8c-13.6 0-24 10.4-24 24s10.4 24 24 24zM525.6 515.2H140.8c-13.6 0-24 10.4-24 24s10.4 24 24 24h384.8c12.8 0 24-10.4 24-24s-10.4-24-24-24zM140.8 395.2H616c13.6 0 24-10.4 24-24s-10.4-24-24-24H140.8c-13.6 0-24 10.4-24 24s10.4 24 24 24zM421.6 683.2H140.8c-13.6 0-24 10.4-24 24s10.4 24 24 24h280.8c12.8 0 24-10.4 24-24s-10.4-24-24-24zM897.6 306.4l-67.2-67.2c-4-7.2-11.2-12-20.8-12-13.6 0-24 10.4-24 24V624c-25.6-23.2-59.2-36.8-96-36.8-79.2 0-144 64.8-144 144s64.8 144 144 144c78.4 0 141.6-63.2 144-140.8V309.6l30.4 30.4c9.6 8.8 24.8 8.8 33.6 0 9.6-8.8 9.6-24 0-33.6z m-208 520.8c-52.8 0-96-43.2-96-96s43.2-96 96-96 96 43.2 96 96-43.2 96-96 96z"  /></svg>