<?xml version="1.0" standalone="no"?><!DOCTYPE svg PUBLIC "-//W3C//DTD SVG 1.1//EN" "http://www.w3.org/Graphics/SVG/1.1/DTD/svg11.dtd"><svg class="icon" width="200px" height="200.00px" viewBox="0 0 1024 1024" version="1.1" xmlns="http://www.w3.org/2000/svg"><path fill="#515151" d="M52 610.4c0 30.4 25.6 51.2 51.2 51.2h102.4l255.2 204V150.4L205.6 355.2H103.2c-25.6 0-51.2 25.6-51.2 51.2v204z m0 0"  /><path fill="#515151" d="M103.2 712.8C47.2 712.8 0.8 667.2 0.8 610.4V405.6c0-56 45.6-102.4 102.4-102.4h87.2l245.6-194.4c36-25.6 81.6-4.8 81.6 40.8v715.2c0 40.8-51.2 66.4-81.6 40.8L190.4 712.8H103.2z"  /><path fill="#515151" d="M241.6 396c-10.4 4.8-20.8 10.4-36 10.4H103.2v204h102.4c10.4 0 25.6 4.8 30.4 10.4l173.6 137.6V257.6l-168 138.4zM601.6 742.4c16.8 16.8 44.8 16.8 61.6 0l308-308c16.8-16.8 16.8-44.8 0-61.6-16.8-16.8-44.8-16.8-61.6 0L601.6 680.8c-16.8 16.8-16.8 44.8 0 61.6z"  /><path fill="#515151" d="M971.2 742.4c-16.8 16.8-44.8 16.8-61.6 0L601.6 434.4c-16.8-16.8-16.8-44.8 0-61.6 16.8-16.8 44.8-16.8 61.6 0l308 308c17.6 16.8 17.6 44.8 0 61.6z"  /></svg>