<?xml version="1.0" standalone="no"?><!DOCTYPE svg PUBLIC "-//W3C//DTD SVG 1.1//EN" "http://www.w3.org/Graphics/SVG/1.1/DTD/svg11.dtd"><svg class="icon" width="200px" height="200.00px" viewBox="0 0 1024 1024" version="1.1" xmlns="http://www.w3.org/2000/svg"><path fill="#515151" d="M923.15 449.62c-19.27 0-34.91 15.63-34.91 34.9v81.04c0 111.21-93.51 201.68-208.45 201.68H238.54l85.56-85.56c13.63-13.63 13.63-35.72 0-49.36s-35.72-13.63-49.36 0L129.6 777.47c-3.24 3.24-5.81 7.12-7.58 11.41-0.07 0.18-0.1 0.36-0.17 0.54-1.55 3.95-2.48 8.23-2.48 12.73s0.93 8.77 2.48 12.72c0.07 0.18 0.09 0.36 0.17 0.54a34.93 34.93 0 0 0 7.58 11.41l145.14 145.14c6.82 6.82 15.75 10.23 24.68 10.23s17.86-3.41 24.68-10.23c13.63-13.63 13.63-35.72 0-49.36l-85.56-85.56h441.24c153.44 0 278.26-121.78 278.26-271.49v-81.04c0.01-19.25-15.62-34.89-34.89-34.89zM135.76 550.84v-92.4c0-111.19 93.51-201.66 208.45-201.66h429.86l-85.56 85.56c-13.63 13.63-13.63 35.72 0 49.36 6.82 6.82 15.75 10.23 24.68 10.23s17.86-3.41 24.68-10.23l145.14-145.14c1.04-1.04 1.46-2.4 2.34-3.53 0.93-1.21 1.76-2.48 2.53-3.81 1.79-3.05 3.05-6.15 3.83-9.51 0.13-0.59 0.24-1.18 0.35-1.78 0.72-4.06 0.72-8.04 0-12.1-0.11-0.6-0.21-1.19-0.35-1.78-0.78-3.36-2.04-6.45-3.83-9.5-0.77-1.34-1.6-2.61-2.54-3.82-0.88-1.13-1.3-2.48-2.34-3.52L737.87 52.03c-13.63-13.63-35.72-13.63-49.36 0s-13.63 35.72 0 49.36l85.56 85.58H344.21c-153.44 0-278.26 121.78-278.26 271.47v92.4c0 19.27 15.63 34.9 34.9 34.9s34.91-15.63 34.91-34.9zM411.45 379.27l0.89 51.69 71.81-15.2 4.14 238.66 62.31-1.1-5.09-294.17-46.2 0.8z" /></svg>