<?xml version="1.0" standalone="no"?><!DOCTYPE svg PUBLIC "-//W3C//DTD SVG 1.1//EN" "http://www.w3.org/Graphics/SVG/1.1/DTD/svg11.dtd"><svg class="icon" width="200px" height="200.00px" viewBox="0 0 1024 1024" version="1.1" xmlns="http://www.w3.org/2000/svg"><path fill="#515151" d="M706.510042 326.297554c-3.393283-9.060353-10.175757-16.425088-18.878976-20.391422-7.119141-3.968381-15.600303-5.776563-24.186865-4.41659-20.572548 3.284813-34.590819 22.772656-31.31317 43.620473 1.810229 11.781324 8.813736 21.524223 18.314111 27.079752 36.284391 38.97057 58.667168 91.202165 58.667168 148.756999 0 62.996776-26.795273 119.53649-69.40779 159.41678-7.910157 6.797823-12.887518 16.880459-12.887518 28.211528 0 20.620643 16.619516 37.271882 37.192064 37.271882 10.513448 0 20.008706-4.41659 26.789133-11.441587 7.236821-4.189416 12.883425-10.875698 15.823384-18.805298 46.576805-51.550073 75.170027-119.648031 75.170026-194.652282-0.110517-74.891687-28.710902-142.983505-75.281567-194.650235z m0 0M836.506768 190.452633c-6.217608-12.574387-19.105127-21.303188-34.141588-21.303188-20.911262 0-37.978986 16.997116-37.978986 38.071083 0 13.82282 7.347339 25.830295 18.314111 32.517602 64.320934 67.525929 103.993492 158.734234 103.993493 259.343653 0 112.733551-49.737798 213.680661-128.297015 282.455023l0.110517 0.110517c-12.31856 6.119371-20.799722 18.810415-20.799722 33.537837 0 20.7373 16.731056 37.505195 37.419238 37.505196a37.211507 37.211507 0 0 0 29.951149-15.071254c0.343831-0.337691 0.680499-0.793062 1.019213-1.130753l0.116657 0.110517c93.821829-82.253352 153.281035-202.804962 153.281035-337.517083 0.10847-119.648031-46.805002-228.186026-122.988102-308.62915z m-399.367756-64.579831l-186.630585 191.363376H136.677892c-48.601928 0-72.567759 26.284643-72.567759 72.735581v242.573711c0 45.774533 24.641213 72.742744 72.567759 72.742745h113.720018l186.741102 191.472869c53.581336 50.534953 135.195122 28.211529 135.195121-55.627948V181.391257c0-84.639702-82.632999-105.031125-135.195121-55.518455z m62.621223 677.982312c0 55.0682-24.415063 24.248264-49.392944-0.565888-43.63787-43.054585-109.424178-112.733551-163.568333-170.742733H185.058786c-36.848233 0-48.380894-12.345166-48.380894-48.49141V438.581873c0-35.353183 12.3247-48.492434 48.380894-48.492434h102.869902c53.80544-58.353013 119.02893-127.915321 162.658614-170.631192 24.75787-24.24417 49.172933-55.857169 49.172933 1.469468v582.927399z m0 0" /></svg>